<svg xmlns="http://www.w3.org/2000/svg" width="19" height="19" viewBox="0 0 19 19"><g transform="translate(-326.5 -59.5)"><path d="M1955,201v6c0,2.828,0,4.243.88,5.121s2.29.879,5.12.879h6c2.83,0,4.24,0,5.12-.879s.88-2.293.88-5.121v-6c0-2.828,0-4.243-.88-5.121S1969.83,195,1967,195h-6" transform="translate(540 -1895) rotate(90)" fill="none" stroke="#fff" stroke-linecap="round" stroke-width="1"/><path d="M1967,207v.5h.5V207Zm-7.65-8.354a.5.5,0,0,0-.7.708ZM1966.5,200v7h1v-7Zm.5,6.5h-7v1h7Zm.35.146-8-8-.7.708,8,8Z" transform="translate(540 -1895) rotate(90)" fill="#fff"/></g></svg>