<?xml version="1.0" encoding="utf-8"?>
<!-- Generator: Adobe Illustrator 16.0.0, SVG Export Plug-In . SVG Version: 6.00 Build 0)  -->
<!DOCTYPE svg PUBLIC "-//W3C//DTD SVG 1.1//EN" "http://www.w3.org/Graphics/SVG/1.1/DTD/svg11.dtd">
<svg version="1.1" id="Camada_1" xmlns="http://www.w3.org/2000/svg" xmlns:xlink="http://www.w3.org/1999/xlink" x="0px" y="0px"
	 width="300px" height="100px" viewBox="0 0 300 100" enable-background="new 0 0 300 100" xml:space="preserve">
<g>
	<path fill="#151616" d="M24.605,75.049c-10.137,0-17.494-6.219-17.494-14.786c0-7.963,6.303-13.523,15.328-13.523h9.747
		c1.961,0,3.178-1.009,3.178-2.635c0-2.228-2.759-5.524-8.683-5.524c-6.026,0-8.699,3.632-9.881,6.679l-0.758,1.956l-7.9-5.171
		l0.544-1.302c3.152-7.542,9.542-11.694,17.995-11.694c10.817,0,18.667,7.054,18.667,16.772v28.236h-9.171v-3.01
		C33.508,73.223,29.5,75.049,24.605,75.049z M22.528,55.73c-3.142,0-5.253,1.821-5.253,4.532c0,3.191,2.877,5.253,7.33,5.253
		c6.406,0,10.527-3.717,10.986-9.785H22.528z"/>
	<path fill="#151616" d="M73.702,75.049c-13.215,0-23.18-9.851-23.18-22.911c0-12.948,10.182-23.09,23.18-23.09
		c4.814,0,9.318,1.537,13.017,4.392V7.474h9.714v66.582h-9.714v-3.357C83.002,73.525,78.499,75.049,73.702,75.049z M73.702,38.76
		c-7.542,0-13.016,5.627-13.016,13.377c0,7.646,5.474,13.197,13.016,13.197c7.42,0,13.017-5.674,13.017-13.197
		C86.719,44.512,81.123,38.76,73.702,38.76z"/>
	<polygon fill="#151616" points="123.843,75.408 101.013,30.04 112.049,30.04 124.893,56.397 137.821,30.04 148.855,30.04 
		126.025,75.408 	"/>
	<path fill="#151616" d="M181.912,74.056v-25.8c0-5.968-3.5-9.676-9.134-9.676c-5.896,0-9.858,4.396-9.858,10.94v24.536h-9.712
		V30.04h9.171v2.976c2.498-2.112,6.289-3.968,11.481-3.968c10.46,0,17.765,7.342,17.765,17.855v27.153H181.912z"/>
	<path fill="#151616" d="M219.394,95.9c-8.656,0-16.517-4.304-20.517-11.23l-0.823-1.426l8.631-5.344l0.85,1.605
		c2.114,3.995,6.881,6.681,11.859,6.681c7.852,0,12.924-5.286,12.924-13.468V70.7c-3.716,2.825-8.218,4.349-13.015,4.349
		c-13.215,0-23.182-9.851-23.182-22.911c0-12.948,10.183-23.09,23.182-23.09c4.815,0,9.316,1.537,13.015,4.391V30.04h9.714v42.679
		C242.031,86.366,232.722,95.9,219.394,95.9z M219.303,38.76c-7.542,0-13.016,5.627-13.016,13.377
		c0,7.646,5.474,13.197,13.016,13.197c7.419,0,13.015-5.674,13.015-13.197C232.317,44.512,226.722,38.76,219.303,38.76z"/>
	<path fill="#151616" d="M269.707,75.049c-13.215,0-23.182-9.851-23.182-22.911c0-12.948,10.183-23.09,23.182-23.09
		c13.215,0,23.181,9.927,23.181,23.09C292.888,65.198,282.922,75.049,269.707,75.049z M269.707,38.76
		c-7.542,0-13.016,5.627-13.016,13.377c0,7.646,5.474,13.197,13.016,13.197c7.42,0,13.016-5.674,13.016-13.197
		C282.723,44.512,277.127,38.76,269.707,38.76z"/>
</g>
<g>
	<path fill="#FF1D00" d="M279.077,69.12c0-3.301,2.682-5.88,5.88-5.88c3.302,0,5.88,2.579,5.88,5.88c0,3.196-2.578,5.879-5.88,5.879
		C281.759,74.999,279.077,72.316,279.077,69.12z"/>
</g>
</svg>
